<svg id="Layer_1" data-name="Layer 1" xmlns="http://www.w3.org/2000/svg" xmlns:xlink="http://www.w3.org/1999/xlink" viewBox="0 0 76 90"><defs><style>.cls-1{fill-rule:evenodd;fill:url(#linear-gradient);}.cls-2{fill:url(#linear-gradient-2);}</style><linearGradient id="linear-gradient" x1="9.04" y1="37.41" x2="65.64" y2="37.41" gradientUnits="userSpaceOnUse"><stop offset="0" stop-color="#6f5ec2"/><stop offset="1" stop-color="#7d37a8"/></linearGradient><linearGradient id="linear-gradient-2" x1="24.07" y1="68.03" x2="50.62" y2="68.03" xlink:href="#linear-gradient"/></defs><title>iconos</title><path class="cls-1" d="M61.74,53.32c-5-3.54-12.64-1.66-17.41-8,0,0-1.78-2,2.21-6.88s4.33-12.64,3.33-18.63-6.65-10-12.53-10-11.53,4-12.53,10-.67,13.76,3.33,18.63,2.21,6.88,2.21,6.88c-4.76,6.32-12.41,4.44-17.4,8S9.18,65,9.18,65H21.84V52.53h31V65H65.51S66.73,56.87,61.74,53.32Z"/><path class="cls-2" d="M34.56,72.73A1.73,1.73,0,1,1,32.83,71,1.74,1.74,0,0,1,34.56,72.73Zm16.06-18V81.31H24.07V54.75Zm-3.43,3.44H44.34l-8,8a6.22,6.22,0,0,0-2.69-.62,6.15,6.15,0,1,0,6.15,6.15,6.22,6.22,0,0,0-.54-2.52l.31-.44H41.5V66.49h2.27V64.1h2.16V62.17h1.26Z"/></svg>