<svg id="Layer_1" data-name="Layer 1" xmlns="http://www.w3.org/2000/svg" xmlns:xlink="http://www.w3.org/1999/xlink" viewBox="0 0 243.25 220.04"><defs><style>.cls-1{fill:url(#linear-gradient);}.cls-2{fill:none;stroke:#18454c;stroke-linecap:round;stroke-linejoin:round;stroke-width:6.28px;}.cls-3{fill:#c48b58;}.cls-4{fill:#fff8c2;}.cls-5{fill:#ddb96f;}.cls-6{fill:#18454c;}</style><linearGradient id="linear-gradient" y1="117.3" x2="243.25" y2="117.3" gradientUnits="userSpaceOnUse"><stop offset="0" stop-color="#24c2ff"/><stop offset="1" stop-color="#ccd3d9"/></linearGradient></defs><title>iconos</title><path class="cls-1" d="M168.18,15.87c21.91-2.56,46.51-2.61,63,12,12.86,11.41,17,33.69,4.71,45.73-7,6.81-17.09,8.88-26.3,12s-18.94,8.83-21,18.33c-2.16,9.85,4.69,19.09,10,27.68,7.89,12.87,13,28,11.29,43-2.74,24.44-25.44,45-50,45.37-16.83.24-33-8-45.22-19.53-8-7.59-14.81-16.72-24.16-22.65-13.43-8.51-30.13-9.23-45.85-11.66s-32.72-8-40.47-21.91c-5.48-9.81-5.07-22.13-1-32.62S14.32,92.24,22.17,84.2C61.92,43.45,112.63,22.35,168.18,15.87Z"/><path class="cls-2" d="M214.53,55.11a105.33,105.33,0,1,1-38.15-37.86"/><rect class="cls-3" x="111.2" y="143.33" width="60.64" height="11.11"/><rect class="cls-4" x="116.88" y="131.96" width="60.64" height="11.11"/><rect class="cls-3" x="116.88" y="131.96" width="60.64" height="11.11"/><rect class="cls-3" x="113.09" y="120.6" width="60.64" height="11.11"/><rect class="cls-3" x="107.41" y="109.23" width="60.64" height="11.11"/><rect class="cls-3" x="113.09" y="97.86" width="60.64" height="11.11"/><rect class="cls-3" x="107.41" y="86.49" width="60.64" height="11.11"/><rect class="cls-3" x="113.09" y="75.12" width="60.64" height="11.11"/><rect class="cls-3" x="105.51" y="63.75" width="60.64" height="11.11"/><path class="cls-5" d="M93.89,164l7.12,1.82c19.66,5,40.29-8.46,46.08-30.11S141.62,92.44,122,87.42l-7.12-1.82Z"/><ellipse class="cls-4" cx="101.99" cy="124.2" rx="40.59" ry="35.82" transform="translate(-46.77 184.99) rotate(-72.84)"/><ellipse class="cls-5" cx="100.65" cy="123.86" rx="33.82" ry="28.93" transform="translate(-46.87 184.76) rotate(-73.33)"/><path class="cls-6" d="M177.52,130.07h-1.9V120.6a1.89,1.89,0,0,0-1.89-1.9h-3.79v-7.84h3.79a1.88,1.88,0,0,0,1.89-1.89V97.86a1.89,1.89,0,0,0-1.89-1.9h-3.79V88.13h3.79a1.89,1.89,0,0,0,1.89-1.9V75.12a1.89,1.89,0,0,0-1.89-1.9H168V63.75a1.89,1.89,0,0,0-1.89-1.9H105.51a1.89,1.89,0,0,0-1.89,1.9V74.86a1.89,1.89,0,0,0,1.89,1.9h5.69v6c-19.61-3.92-39.89,10.11-45.76,32.08-3.13,11.72-1.64,24.06,4.09,33.85A35,35,0,0,0,91,165.24l9.5,2.42a35.22,35.22,0,0,0,8.78,1.11c10.47,0,20.59-4.64,28.19-12.43h34.32a1.89,1.89,0,0,0,1.9-1.89V145h3.79a1.88,1.88,0,0,0,1.89-1.89V132A1.89,1.89,0,0,0,177.52,130.07Zm-59.64,31.1,4.44,1.13a33.64,33.64,0,0,1-4.24,1.45l-3.49-.89C115.71,162.35,116.81,161.79,117.88,161.17Zm2.2-1.39c.88-.59,1.74-1.22,2.58-1.88l5.38,1.38c-1,.63-2,1.22-3,1.76Zm4.38-3.37c.73-.64,1.44-1.3,2.13-2l5.86,1.5c-.77.67-1.57,1.31-2.38,1.92Zm3.64-3.56c.6-.67,1.18-1.37,1.75-2.08l6.23,1.59c-.63.7-1.27,1.38-1.94,2Zm9.31-2.11-6.3-1.61c.51-.7,1-1.41,1.5-2.15l5.67,1.45.47-1.83-5.13-1.32c.42-.72.84-1.46,1.23-2.21l4.56,1.16.47-1.83-4.18-1.07c.34-.75.66-1.51,1-2.28l2.52.64.47-1.84-2.28-.58c.27-.76.5-1.56.73-2.34l.87.22.47-1.84-.81-.2A45.78,45.78,0,0,0,138.1,108l2.27.58.47-1.84-3.48-.89c-.36-1-.76-1.9-1.19-2.83l5.15,1.31.19.29a40.35,40.35,0,0,1,3.75,30.61A42.11,42.11,0,0,1,137.41,150.74ZM117.83,71.56V65.64h1.89v2.48h1.9V65.64h1.89v2.48h1.9V65.64h17.05v2.48h1.9V65.64h1.89v5.92h1.9V65.64H150V73h-5.68V70.48h-1.9V73h-1.89V70.48h-1.9V73H114V65.64h1.89v5.92Zm45.48,24.15h-1.9V88.38h1.9Zm1.89-7.33h1v7.33h-1Zm-1.89,30.06h-1.9v-7.32h1.9Zm1.89-7.32h1v7.32h-1Zm-9.47-22.74v7.33h-1.9V88.38Zm5.68,11.37v7.33h-1.89V99.75Zm-11,27.58c.06-.79.09-1.57.1-2.36h1.46v-2.48h1.89v5.91h1.9v-5.91h1.89v7.32h-5.68v-2.48Zm9.14,2.48v-7.32h1.89v7.32Zm-5.69-11.37v-7.32h1.9v7.32ZM150,117v-5.91h1.9v7.32H150.1q-.09-.7-.21-1.41Zm15.16,16.83v7.32h-1.89v-7.32Zm-1.89-4.05v-7.32h1.89v7.32Zm-5.69-11.37v-7.32h1.9v7.32Zm5.69-11.36V99.75h1.89v7.33Zm-5.69-11.37V88.38h1.9v7.33Zm5.69-11.37V77h1.89v7.33Zm-1.9,0h-1.89V77h1.89ZM123.51,77v5.92h1.9V77h1.89v2.48h1.9V77h1.89v2.48H133V77h17v2.48h1.9V77h1.89v5.92h1.9V77h1.89v7.33h-5.68V81.85H150v2.49h-1.89V81.85h-1.9v2.49H121.62V77Zm20.85,11.37v2.48h1.89V88.38h1.9V94.3H150V88.38h1.9v7.33h-5.69V93.22h-1.89v2.49h-1.9V93.22h-1.89v2.49h-1.08a36.06,36.06,0,0,0-9.73-7.33Zm-1.5,11.37H150v2.48h1.9V99.75h1.89v5.91h1.9V99.75h1.89v7.33h-5.68v-2.49H150v2.49h-1.89v-2.49h-1.9v.9c-.46-.95-.94-1.88-1.47-2.79S143.54,100.7,142.86,99.75Zm6.06,36.46c.21-.78.39-1.56.56-2.35h4.35v2.48h1.9v-2.48h1.89v5.91h1.9v-5.91h1.89v7.32h-5.68V138.7h-1.9v2.48h-1.89V138.7H150v2.48h-2.79A47.51,47.51,0,0,0,148.92,136.21Zm18.18,5v-7.32H169v7.32Zm0-11.37v-7.32H169v7.32Zm0-22.73V99.75H169v7.33Zm0-22.74V77H169v7.33ZM159.52,73V65.64h1.89V73Zm-1.9,0h-1.89V65.64h1.89Zm-3.79,0h-1.89V65.64h1.89Zm-41.69,0h-1.89V65.64h1.89Zm7.58,4v8l-1.89-.43V77Zm-3.79,7.08c-.31-.12-.63-.2-.94-.3V77h.94Zm18.55,12-3-.78A34.18,34.18,0,0,0,128.38,92,31.76,31.76,0,0,1,134.48,96.14Zm2.73,2.66A33.66,33.66,0,0,1,139.8,102L135,100.77c-.19-.35-.38-.71-.58-1.06-.4-.67-.84-1.3-1.26-1.94Zm22.31,46.43v7.32h-1.9v-7.32Zm1.89,0h1.9v7.32h-1.9Zm3.79,0h1.9v7.32h-1.9Zm5.69-4v-7.32h1.89v7.32Zm.94-11.37h-.94v-7.32h.94Zm0-22.73h-.94V99.75h.94Zm0-22.74h-.94V77h.94ZM164.25,73h-.94V65.64h.94Zm-56.84-7.33h.94V73h-.94ZM72.8,146.77c-5.22-8.92-6.57-20.2-3.7-31C73.86,98,88.85,85.89,104.53,85.89a30.27,30.27,0,0,1,7.47.93,31.29,31.29,0,0,1,19.18,14.8c5.22,8.92,6.57,20.21,3.7,31-5.52,20.62-24.75,33.62-42.9,29A31.27,31.27,0,0,1,72.8,146.77ZM109,165c.91-.26,1.8-.56,2.69-.89l2.15.55A32.54,32.54,0,0,1,109,165Zm36.47-19.73h2.7v2.48H150v-2.48h1.9v5.91h1.89v-5.91h1.9v7.32H150v-2.48h-1.89v2.48h-1.9v-2.48h-1.89v2.48h-3.52A45.24,45.24,0,0,0,145.45,145.23Zm24.49,7.32H169v-7.32h.95Zm5.68-11.37h-.94v-7.32h.94Z"/><path class="cls-6" d="M130.07,131.39c2.64-9.91,1.43-20.28-3.35-28.43a27.66,27.66,0,0,0-17-13.15c-16.21-4.15-33.49,7.75-38.5,26.51-2.65,9.92-1.43,20.28,3.35,28.43a27.71,27.71,0,0,0,17,13.16,26.8,26.8,0,0,0,6.56.82C112.2,158.73,125.73,147.63,130.07,131.39ZM77,143.31c-4.39-7.5-5.51-17.07-3.05-26.25A35.47,35.47,0,0,1,88.77,96.25,44.58,44.58,0,0,0,76,117.55c-2.48,9.28-1.47,21,4.06,30A27.63,27.63,0,0,1,77,143.31Zm15.24,11.84a22.53,22.53,0,0,1-4.79-1.82c-10.26-8.54-12.72-23.82-9.65-35.29s11.42-23.12,22-26a25.73,25.73,0,0,1,3.28-.25,23.55,23.55,0,0,1,5.87.74,24.89,24.89,0,0,1,15.24,11.84c4.39,7.5,5.5,17.07,3,26.25C122.71,147.92,107,158.91,92.28,155.15Z"/></svg>