<svg id="Layer_1" data-name="Layer 1" xmlns="http://www.w3.org/2000/svg" xmlns:xlink="http://www.w3.org/1999/xlink" viewBox="0 0 243.25 220.04"><defs><style>.cls-1{fill:url(#linear-gradient);}.cls-2{fill:none;stroke:#18454c;stroke-linecap:round;stroke-linejoin:round;stroke-width:6.28px;}.cls-3{fill:#66b7c4;}.cls-4{fill:#2b7f93;}.cls-5{fill:#fff8c2;}.cls-6{fill:#18454c;}</style><linearGradient id="linear-gradient" y1="117.3" x2="243.25" y2="117.3" gradientUnits="userSpaceOnUse"><stop offset="0" stop-color="#24c2ff"/><stop offset="1" stop-color="#ccd3d9"/></linearGradient></defs><title>iconos</title><path class="cls-1" d="M168.18,15.87c21.91-2.56,46.51-2.61,63,12,12.86,11.41,17,33.69,4.71,45.73-7,6.81-17.09,8.88-26.3,12s-18.94,8.83-21,18.33c-2.16,9.85,4.69,19.09,10,27.68,7.89,12.87,13,28,11.29,43-2.74,24.44-25.44,45-50,45.37-16.83.24-33-8-45.22-19.53-8-7.59-14.81-16.72-24.16-22.65-13.43-8.51-30.13-9.23-45.85-11.66s-32.72-8-40.47-21.91c-5.48-9.81-5.07-22.13-1-32.62S14.32,92.24,22.17,84.2C61.92,43.45,112.63,22.35,168.18,15.87Z"/><path class="cls-2" d="M214.53,55.11a105.33,105.33,0,1,1-38.15-37.86"/><rect class="cls-3" x="65.67" y="138.33" width="20.36" height="29.43"/><rect class="cls-3" x="126.75" y="122.73" width="20.36" height="45.03"/><rect class="cls-4" x="157.29" y="110.55" width="20.36" height="57.22"/><rect class="cls-4" x="96.21" y="130.57" width="20.36" height="37.19"/><path class="cls-5" d="M168.78,55.07l-44.1,6.62L143.6,75.5c-12.32,21.74-52.5,33.33-78,27.92v17.26c35.29,7.21,79.85-13.14,90.48-36.07l19.24,14Z"/><path class="cls-6" d="M96.83,80.41l-.58,3.4,3.67.61-.54,3.23.74.13,3,.5.57-3.37,2.65.45-.57,3.37,3.09.52.57-3.37.87.15c5.13.86,6.3-3.08,6.54-4.55a5.49,5.49,0,0,0-1-4.22,5.52,5.52,0,0,0,2.37-3.66c.25-1.46.44-5.57-4.69-6.44l-.86-.14.66-4-3.1-.52-.67,4-2.64-.44.67-4L106.8,62l-3-.51-.64,3.82-3.67-.62-.57,3.4,3.67.62L100.49,81Zm9.61-11.24,6.52,1.1a2.19,2.19,0,0,1,2,2.8,2.15,2.15,0,0,1-2.84,2h0l-6.52-1.1Zm-1.33,7.88,6.52,1.1h0a2.16,2.16,0,0,1,2,2.8c-.27,1.62-.94,2.29-2.84,2l-6.52-1.1Z"/><polygon class="cls-6" points="67.14 77.6 78.03 86.42 75.93 78.39 67.14 77.6"/><polygon class="cls-6" points="66.89 76.64 75.67 77.43 70.45 57.5 66.89 76.64"/><polygon class="cls-6" points="85.41 72.81 76.81 78.16 78.91 86.19 85.41 72.81"/><polygon class="cls-6" points="76.56 77.2 85.16 71.85 71.33 57.27 76.56 77.2"/><path class="cls-6" d="M63.61,169.82H88.09V136.27H63.61Zm4.12-29.42H84v25.3H67.73Z"/><path class="cls-6" d="M124.69,169.82h24.48V120.67H124.69Zm4.12-45h16.24V165.7H128.81Z"/><path class="cls-6" d="M155.23,169.82h24.48V108.48H155.23Zm4.12-57.21h16.24V165.7H159.35Z"/><path class="cls-6" d="M94.15,169.82h24.48V128.51H94.15Zm4.12-37.19h16.24V165.7H98.27Z"/><path class="cls-6" d="M63.54,100.87v21.49l1.65.33A78.36,78.36,0,0,0,81,124.24c31.91,0,65.17-17.49,75.84-36.54l21.27,15.52-7.58-50.49-51.1,7.67,21.44,15.65C129.8,92.8,95.06,107.57,66,101.4Zm4.12,5c25.92,4.25,65.27-7.39,77.74-29.38l.9-1.6L130,63,167,57.42l5.51,36.66L155.27,81.47l-1.06,2.27C142.57,108.85,96.77,124,67.66,119Z"/></svg>