<svg id="Layer_1" data-name="Layer 1" xmlns="http://www.w3.org/2000/svg" xmlns:xlink="http://www.w3.org/1999/xlink" viewBox="0 0 244.95 227.05"><defs><style>.cls-1{fill:url(#linear-gradient);}.cls-2{fill:none;stroke:#18454c;stroke-linecap:round;stroke-linejoin:round;stroke-width:6.28px;}.cls-3{fill:#a6f4f4;}.cls-4{fill:#fff8c2;}.cls-5{fill:#fff;}.cls-6{fill:#18454c;}</style><linearGradient id="linear-gradient" x1="-1581.25" y1="1907.58" x2="-1375.29" y2="1907.58" gradientTransform="matrix(-0.62, 0.78, -0.78, -0.62, 681.26, 2457.02)" gradientUnits="userSpaceOnUse"><stop offset="0" stop-color="#24c2ff"/><stop offset="1" stop-color="#ccd3d9"/></linearGradient></defs><title>iconos</title><path class="cls-1" d="M160.42,60.6c-11.73-9.33-21.36-22.25-32.57-32.81C111.53,12.41,90.43,1.4,68,.12S22.22,8.28,9.39,26.66-3.49,72.27,11.48,89c8.2,9.15,19.79,14.56,28.81,22.89C64.7,134.4,38.46,176,59.92,204.9c30.5,41.07,108.32,16.86,141.81-7.12,19.79-14.17,34.72-38.17,41-61.49,6.13-23,.85-59.81-28.11-63.71-6.82-.92-13.72.42-20.6.45C180.27,73.1,169.69,68,160.42,60.6Z"/><path class="cls-2" d="M217.82,56.55A105.42,105.42,0,1,1,179.66,18.7"/><path class="cls-3" d="M78.68,161.58,60,159.89l1.7-15.22,6.81-6.77H77v-8.46l13.62-13.53h10.22l5.11-5.08V100.68l8.86-8.8a36.58,36.58,0,0,1,8.15-40.25C137.36,37.29,160.49,37,174.6,51s13.83,37-.6,51.35a37.07,37.07,0,0,1-42.81,7Z"/><path class="cls-4" d="M154,104.16A29,29,0,0,1,137.38,102"/><path class="cls-5" d="M93.09,127a2.42,2.42,0,0,1-3.4,0,2.39,2.39,0,0,1,0-3.39,2.42,2.42,0,0,1,3.4,0A2.39,2.39,0,0,1,93.09,127Z"/><path class="cls-5" d="M116.5,103.7a2.42,2.42,0,0,1-3.4,0,2.39,2.39,0,0,1,0-3.39,2.42,2.42,0,0,1,3.4,0A2.39,2.39,0,0,1,116.5,103.7Z"/><path class="cls-5" d="M151.73,99.14a2.42,2.42,0,0,1-3.4,0,2.38,2.38,0,0,1,0-3.38,2.4,2.4,0,0,1,3.4,0A2.38,2.38,0,0,1,151.73,99.14Z"/><path class="cls-5" d="M139.06,103.7a2.43,2.43,0,0,1-3.41,0,2.39,2.39,0,0,1,0-3.39,2.43,2.43,0,0,1,3.41,0A2.39,2.39,0,0,1,139.06,103.7Z"/><path class="cls-5" d="M79.37,154.13a2.41,2.41,0,0,1-3.41,0,2.38,2.38,0,0,1,0-3.38,2.41,2.41,0,0,1,3.41,0A2.38,2.38,0,0,1,79.37,154.13Z"/><path class="cls-5" d="M158.68,77.85a2.4,2.4,0,0,1-3.4,0,2.38,2.38,0,0,1,0-3.38,2.4,2.4,0,0,1,3.4,0A2.38,2.38,0,0,1,158.68,77.85Z"/><path class="cls-5" d="M143.1,81.07a2.42,2.42,0,0,1-3.4,0,2.38,2.38,0,0,1,0-3.38,2.4,2.4,0,0,1,3.4,0A2.38,2.38,0,0,1,143.1,81.07Z"/><path class="cls-5" d="M131.38,56.76a2.4,2.4,0,0,1-3.4,0,2.38,2.38,0,0,1,0-3.38,2.42,2.42,0,0,1,3.4,0A2.36,2.36,0,0,1,131.38,56.76Z"/><path class="cls-3" d="M68.07,66.49a2.42,2.42,0,0,1,2.41,2.41,2.36,2.36,0,0,1-2.39,2.39,2.4,2.4,0,0,1,0-4.8Z"/><path class="cls-3" d="M62.08,110.73a2.4,2.4,0,1,1-2.39,2.39A2.41,2.41,0,0,1,62.08,110.73Z"/><path class="cls-3" d="M151.32,138.4a2.42,2.42,0,0,1-2.41-2.41,2.38,2.38,0,0,1,2.39-2.39,2.4,2.4,0,0,1,0,4.8Z"/><path class="cls-3" d="M171.41,141a2.4,2.4,0,1,1,2.39-2.39A2.38,2.38,0,0,1,171.41,141Z"/><path class="cls-3" d="M66.72,97.71a2.42,2.42,0,0,1,2.41-2.41,2.38,2.38,0,0,1,2.39,2.39,2.4,2.4,0,0,1-4.8,0Z"/><path class="cls-3" d="M127.64,144.38a2.43,2.43,0,0,1-2.41-2.41,2.38,2.38,0,0,1,2.39-2.39,2.4,2.4,0,0,1,0,4.8Z"/><path class="cls-3" d="M99,51.38a2.42,2.42,0,0,1,2.41,2.41A2.37,2.37,0,0,1,99,56.18a2.42,2.42,0,0,1-2.41-2.41A2.39,2.39,0,0,1,99,51.38Z"/><path class="cls-6" d="M121.46,50.16a39.61,39.61,0,0,0-9.31,14.47l-9.84-9.84a3.43,3.43,0,0,0,.16-1A3.46,3.46,0,0,0,99,50.34h0a3.44,3.44,0,0,0,0,6.88h0a3.38,3.38,0,0,0,1.09-.19l11,11a37.92,37.92,0,0,0,1.22,23.37l-2.56,2.55-26.4-26.4H71.23a3.48,3.48,0,0,0-3.15-2.07h0a3.44,3.44,0,0,0,0,6.88h0A3.37,3.37,0,0,0,71,70.65h11L93.75,82.33H82.22L70.13,94.42a3.31,3.31,0,0,0-1-.16h0a3.45,3.45,0,0,0-2.45,5.88,3.4,3.4,0,0,0,2.43,1h0a3.4,3.4,0,0,0,3.25-4.55L83.51,85.46H96.87l10.67,10.67-3.09,3.07a2.09,2.09,0,0,0-.62,1.48V110L100,113.82H90.59a2.08,2.08,0,0,0-1.47.61L84.57,119l-7.2-7.2H65.24a3.47,3.47,0,0,0-3.15-2.07h0a3.44,3.44,0,0,0-2.42,1,3.37,3.37,0,0,0-1,2.44,3.45,3.45,0,0,0,3.44,3.44h0a3.4,3.4,0,0,0,2.42-1,3.66,3.66,0,0,0,.51-.68h11l6.28,6.27L75.51,128a2.07,2.07,0,0,0-.62,1.48v6.37H68.46a2.08,2.08,0,0,0-1.47.61l-6.81,6.77a2.08,2.08,0,0,0-.6,1.24l-1.7,15.23A2.09,2.09,0,0,0,59.76,162l18.73,1.69h.19a2.12,2.12,0,0,0,1.47-.61l33.25-33L124.35,141a3.37,3.37,0,0,0-.16,1,3.47,3.47,0,0,0,3.45,3.45h0a3.41,3.41,0,0,0,2.42-1,3.36,3.36,0,0,0,1-2.43,3.47,3.47,0,0,0-3.44-3.45h0a3.4,3.4,0,0,0-1.1.2l-10.9-10.91,5.45-5.42,15,15h12.13a3.49,3.49,0,0,0,3.16,2.07h0a3.44,3.44,0,0,0,2.42-1,3.38,3.38,0,0,0,1-2.44,3.45,3.45,0,0,0-3.44-3.44h0a3.4,3.4,0,0,0-2.43,1,3.36,3.36,0,0,0-.51.68h-11l-7.82-7.81H157l11.17,11.17a3.32,3.32,0,0,0-.16,1A3.45,3.45,0,0,0,171.4,142h0a3.41,3.41,0,0,0,3.43-3.43,3.46,3.46,0,0,0-3.45-3.45h0a3.62,3.62,0,0,0-1.09.19l-12-12H126.39l-3.11-3.1,8.33-8.27a39.44,39.44,0,0,0,55.48-35.76,37.25,37.25,0,0,0-11-26.61C161.18,34.76,136.68,35,121.46,50.16Zm-22.41,5h0a1.39,1.39,0,0,1-1.37-1.37A1.37,1.37,0,0,1,99,52.42h0a1.37,1.37,0,0,1,1,2.33A1.36,1.36,0,0,1,99.05,55.14Zm-30,14.72a1.36,1.36,0,0,1-1,.39h0a1.39,1.39,0,0,1-1.37-1.37,1.37,1.37,0,0,1,1.35-1.35h0a1.39,1.39,0,0,1,1.37,1.37A1.36,1.36,0,0,1,69.05,69.86Zm.06,29.2h0a1.33,1.33,0,0,1-1.34-1.35,1.38,1.38,0,0,1,1.36-1.37h0a1.31,1.31,0,0,1,1,.4,1.34,1.34,0,0,1,.39,1A1.37,1.37,0,0,1,69.11,99.06Zm-6,15a1.36,1.36,0,0,1-1,.39h0a1.38,1.38,0,0,1-1.37-1.37,1.35,1.35,0,0,1,1.35-1.35h0a1.37,1.37,0,0,1,1,2.33Zm64.56,26.52h0A1.37,1.37,0,0,1,129,142a1.34,1.34,0,0,1-.39.95,1.36,1.36,0,0,1-.95.39h0a1.37,1.37,0,0,1-1.37-1.37,1.36,1.36,0,0,1,.39-1A1.38,1.38,0,0,1,127.62,140.62ZM150.34,135a1.38,1.38,0,0,1,1-.39h0a1.38,1.38,0,0,1,1.37,1.37,1.34,1.34,0,0,1-.39,1,1.32,1.32,0,0,1-.95.4h0a1.37,1.37,0,0,1-1-2.33Zm21,2.22h0a1.37,1.37,0,0,1,1.37,1.37,1.36,1.36,0,0,1-.39.95,1.38,1.38,0,0,1-1,.39h0a1.38,1.38,0,0,1-1.37-1.37,1.34,1.34,0,0,1,.39-1A1.31,1.31,0,0,1,171.38,137.25Zm1.15-36.34a34.82,34.82,0,0,1-40.4,6.64,2.07,2.07,0,0,0-2.41.38L77.9,159.42,62.26,158l1.38-12.38L69.32,140H77a2.08,2.08,0,0,0,2.09-2.08v-7.59L91.45,118h9.36a2.08,2.08,0,0,0,1.47-.61l5.11-5.07a2.09,2.09,0,0,0,.61-1.48v-9.28l8.25-8.2a2.07,2.07,0,0,0,.44-2.29,34.3,34.3,0,0,1,7.71-37.95c13.6-13.51,35.46-13.78,48.73-.59a33.09,33.09,0,0,1,9.79,23.65A34.7,34.7,0,0,1,172.53,100.91Z"/><path class="cls-6" d="M140.79,102.13a.51.51,0,0,0,0-.13,3.4,3.4,0,0,0-1-2.43,3.47,3.47,0,0,0-4.87,0,3.44,3.44,0,0,0,4.87,4.86,2.22,2.22,0,0,0,.28-.33,29.88,29.88,0,0,0,9.24,1.48,30.53,30.53,0,0,0,4.86-.39l-.34-2.06A28.09,28.09,0,0,1,140.79,102.13Zm-2.47.83a1.37,1.37,0,0,1-1.93,0,1.34,1.34,0,0,1,0-1.91,1.41,1.41,0,0,1,1-.4,1.36,1.36,0,0,1,1,.4,1.34,1.34,0,0,1,0,1.91Z"/><path class="cls-6" d="M139,95.92a22.47,22.47,0,0,0,7.72,2.31,3.38,3.38,0,0,0,.91,1.65,3.44,3.44,0,1,0,0-4.86,3.57,3.57,0,0,0-.76,1.13,20.58,20.58,0,0,1-6.93-2.08l-3.29-1.68L115.83,113v-7.78a3.41,3.41,0,0,0,1.41-5.69,3.48,3.48,0,0,0-4.88,0,3.43,3.43,0,0,0,0,4.86,3.52,3.52,0,0,0,1.38.83v9.86L86.89,141.8V131.21l2.92-2.91a3.56,3.56,0,0,0,1.58.4,3.49,3.49,0,0,0,2.44-1,3.43,3.43,0,0,0,1-2.43,3.39,3.39,0,0,0-1-2.43,3.46,3.46,0,0,0-4.88,0,3.36,3.36,0,0,0-.61,4l-3.54,3.51v13.54l-5.56,5.52a3.46,3.46,0,0,0-4,.61,3.43,3.43,0,0,0,0,4.86,3.45,3.45,0,0,0,5.88-2.43,3.38,3.38,0,0,0-.39-1.57L137,94.93Zm10.1.57a1.4,1.4,0,0,1,1.94,0,1.38,1.38,0,0,1,.39,1,1.34,1.34,0,0,1-.39,1,1.38,1.38,0,0,1-1.94,0,1.31,1.31,0,0,1-.4-1A1.35,1.35,0,0,1,149.06,96.49Zm-35.23,4.56a1.38,1.38,0,0,1,1.94,0,1.37,1.37,0,1,1-1.94,0ZM90.42,124.31a1.4,1.4,0,0,1,1.94,0,1.34,1.34,0,0,1,0,1.91,1.36,1.36,0,0,1-1.94-1.91ZM78.63,153.39a1.37,1.37,0,0,1-1.93,0,1.33,1.33,0,0,1,0-1.9,1.36,1.36,0,0,1,1.93,0,1.33,1.33,0,0,1,0,1.9Z"/><path class="cls-6" d="M165.3,60.29a19.88,19.88,0,0,1,5.85,14.17h2.09a22,22,0,0,0-6.47-15.64c-8.86-8.8-23.53-8.53-32.71.6A23.18,23.18,0,0,0,128.76,85l.42,1,9.67-4.34a1.71,1.71,0,0,1,.11.14,3.48,3.48,0,0,0,4.88,0,3.43,3.43,0,0,0,0-4.86A3.46,3.46,0,0,0,139,77a3.41,3.41,0,0,0-1,2.43,2.58,2.58,0,0,0,0,.39l-7.7,3.46a21.16,21.16,0,0,1,5.23-22.34C143.9,52.57,157.25,52.29,165.3,60.29ZM140.43,78.42a1.34,1.34,0,1,1-.4,1A1.39,1.39,0,0,1,140.43,78.42Z"/><path class="cls-6" d="M120.22,98.09l6-6L124,87a28,28,0,0,1,4.25-28.82,3.43,3.43,0,0,0,3.84-5.56,3.48,3.48,0,0,0-4.88,0,3.39,3.39,0,0,0-.52,4.17,30.1,30.1,0,0,0-4.61,31l1.63,3.81-5,5Zm8.49-44a1.38,1.38,0,0,1,1.94,0,1.31,1.31,0,0,1,.4,1,1.35,1.35,0,0,1-.4,1,1.4,1.4,0,0,1-1.94,0,1.38,1.38,0,0,1-.39-1A1.34,1.34,0,0,1,128.71,54.12Z"/><path class="cls-6" d="M134.33,50l1.12,1.76c11.16-7.06,25.86-5.62,35,3.42a27,27,0,0,1,8,19.31,28.61,28.61,0,0,1-8.56,20.4,29.75,29.75,0,0,1-11,6.92l-1.34-4.94a24.71,24.71,0,0,0,8.67-5.57A23.72,23.72,0,0,0,173,78.15l.17-1.07-12.75-1.55a3.43,3.43,0,0,0-1-1.8,3.48,3.48,0,0,0-4.88,0A3.43,3.43,0,0,0,157,79.59a3.4,3.4,0,0,0,3.13-2l10.59,1.3a21.7,21.7,0,0,1-6,11,22.4,22.4,0,0,1-8.78,5.39l-.94.31,2.42,8.94,1-.32a31.64,31.64,0,0,0,12.84-7.77,30.66,30.66,0,0,0,9.18-21.88,29.06,29.06,0,0,0-8.59-20.79C162.1,44,146.31,42.47,134.33,50ZM158,77.11a1.38,1.38,0,0,1-1.94,0,1.33,1.33,0,0,1,0-1.9,1.38,1.38,0,0,1,1.94,0,1.35,1.35,0,0,1,0,1.9Z"/></svg>