<svg id="Layer_1" data-name="Layer 1" xmlns="http://www.w3.org/2000/svg" xmlns:xlink="http://www.w3.org/1999/xlink" viewBox="0 0 76 90"><defs><style>.cls-1{fill:url(#linear-gradient);}.cls-2{fill:url(#linear-gradient-2);}.cls-3{fill:url(#linear-gradient-3);}.cls-4{fill:url(#linear-gradient-4);}.cls-5{fill:url(#linear-gradient-5);}.cls-6{fill:url(#linear-gradient-6);}.cls-7{fill:url(#linear-gradient-7);}.cls-8{fill:url(#linear-gradient-8);}.cls-9{fill:url(#linear-gradient-9);}</style><linearGradient id="linear-gradient" x1="5.89" y1="36.77" x2="68.87" y2="36.77" gradientUnits="userSpaceOnUse"><stop offset="0" stop-color="#6f5ec2"/><stop offset="1" stop-color="#7d37a8"/></linearGradient><linearGradient id="linear-gradient-2" x1="6.05" y1="50.91" x2="68.71" y2="50.91" xlink:href="#linear-gradient"/><linearGradient id="linear-gradient-3" x1="6.05" y1="55.68" x2="68.71" y2="55.68" xlink:href="#linear-gradient"/><linearGradient id="linear-gradient-4" x1="6.05" y1="60.45" x2="68.71" y2="60.45" xlink:href="#linear-gradient"/><linearGradient id="linear-gradient-5" x1="6.05" y1="65.21" x2="68.71" y2="65.21" xlink:href="#linear-gradient"/><linearGradient id="linear-gradient-6" x1="6.05" y1="69.98" x2="68.71" y2="69.98" xlink:href="#linear-gradient"/><linearGradient id="linear-gradient-7" x1="35.16" y1="38.72" x2="43.04" y2="38.72" xlink:href="#linear-gradient"/><linearGradient id="linear-gradient-8" x1="14.27" y1="36.77" x2="60.49" y2="36.77" xlink:href="#linear-gradient"/><linearGradient id="linear-gradient-9" x1="35.16" y1="34.53" x2="42.37" y2="34.53" xlink:href="#linear-gradient"/></defs><title>iconos</title><path class="cls-1" d="M37.05,20c-17.21.13-31.16,7.69-31.16,16.89S20.13,53.53,37.71,53.53,69.23,46,68.87,36.65,54.25,19.87,37.05,20Zm.61,30.91c-14.78,0-26.82-6.29-26.84-14S22.58,22.72,37.1,22.62s26.55,6.2,26.84,14.05S52.43,50.9,37.66,50.91Z"/><path class="cls-2" d="M37.7,55.75h-.05c-.49,0-1,0-1.45,0-14-.34-25.7-5.44-29.22-12.29H6.05C7.69,51.83,21.23,58.38,37.7,58.38s29.51-6.53,31-14.94h-.87C64.36,50.55,52.28,55.75,37.7,55.75Z"/><path class="cls-3" d="M37.7,60.52h-.05l-1.45,0c-14-.34-25.7-5.44-29.22-12.29H6.05C7.69,56.6,21.23,63.14,37.7,63.14s29.51-6.52,31-14.93h-.87C64.36,55.31,52.28,60.52,37.7,60.52Z"/><path class="cls-4" d="M37.7,65.29h-.05l-1.45,0C22.16,64.93,10.5,59.83,7,53H6.05C7.69,61.37,21.23,67.91,37.7,67.91s29.51-6.52,31-14.93h-.87C64.36,60.08,52.28,65.29,37.7,65.29Z"/><path class="cls-5" d="M37.7,70.06h-.05L36.2,70C22.16,69.7,10.5,64.6,7,57.75H6.05C7.69,66.14,21.23,72.68,37.7,72.68s29.51-6.53,31-14.93h-.87C64.36,64.85,52.28,70.06,37.7,70.06Z"/><path class="cls-6" d="M37.7,74.82h-.05c-.49,0-1,0-1.45,0-14-.34-25.7-5.44-29.22-12.28H6.05C7.69,70.91,21.23,77.45,37.7,77.45s29.51-6.53,31-14.93h-.87C64.36,69.62,52.28,74.82,37.7,74.82Z"/><path class="cls-7" d="M37.33,37.31H35.16V40.1c.63,0,1.38,0,2.46,0,2.88,0,5.42-.38,5.42-1.42S40.5,37.31,37.33,37.31Z"/><path class="cls-8" d="M60.49,36.68c-.24-6.82-10.71-12.3-23.36-12.22S14.23,30.1,14.27,36.85,24.78,49.08,37.62,49.07,60.72,43.5,60.49,36.68ZM46.79,40.9a25,25,0,0,1-4.72.7v1.74h-3V41.75c-.86,0-1.79,0-2.79,0v1.55h-3V41.78l-1,0H25.05V40.7h3.82V32.83H25.05V31.77h8.2V30.19h3v1.53h2.79V30.19h3v1.66a23.74,23.74,0,0,1,3.3.43c2,.36,3.38,1,3.38,1.94s-1.46,1.7-4.63,2.11v0c3.21.31,5.59,1.16,5.59,2.44C49.71,39.69,48.54,40.4,46.79,40.9Z"/><path class="cls-9" d="M42.37,34.49c0-.74-1.62-1.14-4.5-1.14-1.37,0-2.17,0-2.71.06v2.3h2.09C40.58,35.71,42.37,35.23,42.37,34.49Z"/></svg>