<svg id="Layer_1" data-name="Layer 1" xmlns="http://www.w3.org/2000/svg" viewBox="0 0 818.9 732.35"><defs><style>.cls-1{fill:#16c5d5;}.cls-2{fill:#68c2ff;}.cls-3{fill:#0d3c55;}.cls-4{fill:#016fc2;}.cls-5{fill:#fafaf9;}.cls-6{fill:#014a92;}</style></defs><title>comoFunciona</title><rect class="cls-1" x="48.61" y="86.79" width="169.55" height="169.55" rx="32.36" transform="translate(160.38 -44.07) rotate(45)"/><rect class="cls-1" x="326.74" y="86.79" width="169.55" height="169.55" rx="32.36" transform="translate(241.85 -240.73) rotate(45)"/><rect class="cls-2" x="187.68" y="224.95" width="169.55" height="169.55" rx="32.36" transform="translate(298.81 -101.93) rotate(45)"/><rect class="cls-3" x="48.61" y="363.54" width="169.55" height="169.55" rx="32.36" transform="translate(356.07 36.99) rotate(45)"/><rect class="cls-4" x="326.74" y="363.54" width="169.55" height="169.55" rx="32.36" transform="translate(437.53 -159.68) rotate(45)"/><rect class="cls-5" x="604.38" y="86.79" width="169.55" height="169.55" rx="32.36" transform="translate(323.17 -437.05) rotate(45)"/><rect class="cls-6" x="465.32" y="224.95" width="169.55" height="169.55" rx="19.01" transform="translate(-57.89 479.69) rotate(-45)"/><rect class="cls-5" x="185.34" y="504.94" width="169.55" height="169.55" rx="32.36" transform="translate(496.1 -18.27) rotate(45)"/><rect class="cls-3" x="465.32" y="501.69" width="169.55" height="169.55" rx="19.01" transform="translate(-253.58 560.75) rotate(-45)"/><rect class="cls-5" x="546.34" y="300.19" width="25.81" height="3.01"/><rect class="cls-5" x="546.34" y="308.22" width="25.81" height="3.01"/><rect class="cls-5" x="546.34" y="316.25" width="25.81" height="3.01"/><rect class="cls-5" x="546.34" y="324.28" width="25.81" height="3.01"/><path class="cls-5" d="M571.37,270.44H537.72a21.72,21.72,0,0,1,6.72,4.57l.42.45H568.8v16.11h15.57V344H537.3l-5,5h57.11v-60Zm.44,18.12V278.11l10.12,10.45Z"/><path class="cls-5" d="M535.08,341.4V307.65a18.31,18.31,0,1,0-12.49-.18l.26,1.58-4.07,4.07,4.79,4.8-4.79,4.79,5,5-4.55,4.56,4.07,4.07L520.71,339l8.38,8.38Zm-11.34-59.84a7,7,0,1,1,0,9.95A7,7,0,0,1,523.74,281.56Z"/><path class="cls-5" d="M284.73,268.34a12.4,12.4,0,0,1-.69,4.06A39.15,39.15,0,0,1,299,281a12,12,0,0,1,3.19-2.64l.46-.25a43.67,43.67,0,0,0-17.89-10.35C284.72,268,284.73,268.16,284.73,268.34Z"/><path class="cls-5" d="M242.29,278.15l.46.25a12,12,0,0,1,3.19,2.64,39.15,39.15,0,0,1,14.92-8.64,12.15,12.15,0,0,1-.69-4.06c0-.18,0-.36,0-.54A43.67,43.67,0,0,0,242.29,278.15Z"/><path class="cls-5" d="M233.37,309.72a38.86,38.86,0,0,1,1-8.62,12.49,12.49,0,0,1-3.86-1.43c-.16-.09-.31-.19-.46-.29a43.73,43.73,0,0,0,0,20.68l.46-.28a12.49,12.49,0,0,1,3.86-1.43A39,39,0,0,1,233.37,309.72Z"/><path class="cls-5" d="M302.61,341.3l-.46-.25a12.22,12.22,0,0,1-3.19-2.64A39.15,39.15,0,0,1,284,347.05a12.34,12.34,0,0,1,.69,4.05c0,.19,0,.37,0,.55A43.78,43.78,0,0,0,302.61,341.3Z"/><path class="cls-5" d="M314.89,299.38l-.46.29a12.49,12.49,0,0,1-3.86,1.43,39.23,39.23,0,0,1,0,17.25,12.49,12.49,0,0,1,3.86,1.43l.46.28a43.73,43.73,0,0,0,0-20.68Z"/><path class="cls-5" d="M260.17,351.1a12.09,12.09,0,0,1,.69-4.05,39,39,0,0,1-14.92-8.65,12.13,12.13,0,0,1-3.19,2.65l-.46.25a43.78,43.78,0,0,0,17.89,10.35C260.17,351.47,260.17,351.29,260.17,351.1Z"/><path class="cls-5" d="M272.45,278a9.65,9.65,0,1,1,9.65-9.65A9.66,9.66,0,0,1,272.45,278Zm0-14.69a5,5,0,1,0,5.05,5A5.05,5.05,0,0,0,272.45,263.3ZM236.6,298.68a9.65,9.65,0,0,1-8.35-14.47,9.66,9.66,0,0,1,13.19-3.53A9.66,9.66,0,0,1,245,293.86,9.67,9.67,0,0,1,236.6,298.68Zm0-14.69a5,5,0,0,0-4.88,6.35,5,5,0,0,0,9.75-2.61,5,5,0,0,0-2.35-3.07A5.12,5.12,0,0,0,236.62,284Zm0,56.07a9.64,9.64,0,1,1,4.81-1.29A9.57,9.57,0,0,1,236.63,340.06Zm0-14.69a5,5,0,0,0-1.29,9.92,5,5,0,1,0,1.29-9.92Zm35.85,35.39a9.66,9.66,0,1,1,9.65-9.66A9.66,9.66,0,0,1,272.45,360.76Zm0-14.7a5,5,0,1,0,5.05,5A5.05,5.05,0,0,0,272.45,346.06Zm35.82-6a9.65,9.65,0,1,1,2.51-.33A9.78,9.78,0,0,1,308.27,340.07Zm0-14.7a5,5,0,1,0,2.52.67A5.09,5.09,0,0,0,308.29,325.37Zm0-26.69a9.65,9.65,0,1,1,4.81-1.29A9.52,9.52,0,0,1,308.3,298.68Zm0-14.69a5.12,5.12,0,0,0-2.52.67,5,5,0,0,0,5.05,8.74,5,5,0,0,0,1.85-6.89A5.06,5.06,0,0,0,308.28,284Z"/><path class="cls-5" d="M272.45,320.16a10.44,10.44,0,1,1,10.44-10.44A10.43,10.43,0,0,1,272.45,320.16Z"/><rect class="cls-5" x="269.97" y="286.16" width="4.95" height="15.64"/><polygon class="cls-5" points="277.53 293.25 272.45 288.17 267.37 293.25 263.87 289.74 272.45 281.17 281.03 289.74 277.53 293.25"/><rect class="cls-5" x="256.34" y="294.03" width="4.95" height="15.64" transform="translate(-132 375.06) rotate(-60)"/><polygon class="cls-5" points="250.86 307.16 247.72 295.44 259.44 292.31 260.72 297.09 253.78 298.95 255.64 305.88 250.86 307.16"/><rect class="cls-5" x="250.99" y="315.12" width="15.64" height="4.95" transform="translate(-124.13 171.96) rotate(-30)"/><polygon class="cls-5" points="259.44 327.14 247.72 324 250.86 312.28 255.64 313.56 253.78 320.5 260.72 322.36 259.44 327.14"/><rect class="cls-5" x="269.97" y="317.65" width="4.95" height="15.64"/><polygon class="cls-5" points="272.45 338.28 263.87 329.7 267.37 326.2 272.45 331.28 277.53 326.2 281.03 329.7 272.45 338.28"/><rect class="cls-5" x="283.61" y="309.78" width="4.95" height="15.64" transform="translate(-132 406.56) rotate(-60)"/><polygon class="cls-5" points="285.46 327.14 284.18 322.36 291.12 320.5 289.26 313.57 294.04 312.29 297.18 324 285.46 327.14"/><rect class="cls-5" x="278.26" y="299.38" width="15.64" height="4.95" transform="translate(-112.6 183.48) rotate(-30)"/><polygon class="cls-5" points="294.04 307.16 289.26 305.88 291.12 298.95 284.18 297.09 285.46 292.31 297.18 295.44 294.04 307.16"/><path class="cls-5" d="M561.13,551a5.61,5.61,0,0,0-7.83-1.25L537.85,561l24.51-8.27Z"/><path class="cls-5" d="M571.88,559.65a5.61,5.61,0,0,0-7.06-3.53h-.05l-18.95,6.39h27Z"/><path class="cls-5" d="M580.23,586.14a9,9,0,0,0-3.7-.79h-4.47a9.13,9.13,0,1,0,0,18.25h4.47a9,9,0,0,0,3.7-.79,9.11,9.11,0,0,0,0-16.67Zm-5.94,12.3a4,4,0,1,1,4-4A4,4,0,0,1,574.29,598.44Z"/><path class="cls-5" d="M550,611.86a4.18,4.18,0,1,0-4.17,4.18A4.17,4.17,0,0,0,550,611.86Z"/><path class="cls-5" d="M580.21,571.83a5.62,5.62,0,0,0-5.59-5.3H520.13a5.64,5.64,0,0,0-5.47,4.39,6.16,6.16,0,0,0-.13,1.22v11.74h4.86l7.68-7.68h7.6a7.11,7.11,0,1,1,.24,2.94h-6.62l-7.68,7.68h-6.08v6.77h13a7.12,7.12,0,1,1,0,2.95h-13v7.12h8.22l6.73,6.73h9.37a7.12,7.12,0,1,1,0,3H528.26l-6.73-6.73h-7v12a5.6,5.6,0,0,0,5.56,5.61h54.53a5.61,5.61,0,0,0,5.61-5.61V607.07a13.29,13.29,0,0,1-3.7.54h-4.47a13.14,13.14,0,1,1,0-26.27h4.47a13.29,13.29,0,0,1,3.7.54v-9.74A3,3,0,0,0,580.21,571.83Z"/><path class="cls-5" d="M545.9,577.1a4.17,4.17,0,1,0-4.17,4.17A4.18,4.18,0,0,0,545.9,577.1Z"/><path class="cls-5" d="M538.69,595.06a4.18,4.18,0,1,0-4.18,4.18A4.18,4.18,0,0,0,538.69,595.06Z"/><path class="cls-5" d="M421.82,408.33a11.59,11.59,0,0,1-.65,3.84,37.1,37.1,0,0,1,14.11,8.17,11.42,11.42,0,0,1,3-2.49c.14-.09.29-.16.43-.24a41.31,41.31,0,0,0-16.92-9.79C421.82,408,421.82,408.16,421.82,408.33Z"/><path class="cls-5" d="M381.68,417.61c.14.08.29.15.43.24a11.58,11.58,0,0,1,3,2.49,37,37,0,0,1,14.11-8.17,11.59,11.59,0,0,1-.65-3.84c0-.17,0-.34,0-.51A41.24,41.24,0,0,0,381.68,417.61Z"/><path class="cls-5" d="M373.24,447.48a36.58,36.58,0,0,1,.91-8.16A11.65,11.65,0,0,1,370.5,438l-.45-.27a41.46,41.46,0,0,0,0,19.56l.45-.27a11.4,11.4,0,0,1,3.65-1.35A36.64,36.64,0,0,1,373.24,447.48Z"/><path class="cls-5" d="M438.73,477.35l-.43-.24a11.46,11.46,0,0,1-3-2.5,37,37,0,0,1-14.11,8.18,11.58,11.58,0,0,1,.65,3.83c0,.18,0,.35,0,.52A41.42,41.42,0,0,0,438.73,477.35Z"/><path class="cls-5" d="M450.35,437.7l-.44.27a11.65,11.65,0,0,1-3.65,1.35,37,37,0,0,1,0,16.32,11.4,11.4,0,0,1,3.65,1.35l.44.27a41.12,41.12,0,0,0,0-19.56Z"/><path class="cls-5" d="M398.59,486.62a11.58,11.58,0,0,1,.65-3.83,37.16,37.16,0,0,1-14.12-8.18,11.47,11.47,0,0,1-3,2.5l-.43.24a41.36,41.36,0,0,0,16.92,9.79C398.59,487,398.59,486.8,398.59,486.62Z"/><path class="cls-5" d="M410.2,417.46a9.13,9.13,0,1,1,9.13-9.13A9.13,9.13,0,0,1,410.2,417.46Zm0-13.9a4.78,4.78,0,1,0,4.78,4.77A4.78,4.78,0,0,0,410.2,403.56ZM376.29,437a9.13,9.13,0,0,1-7.89-13.69A9.13,9.13,0,1,1,376.29,437Zm0-13.9a4.77,4.77,0,0,0-4.14,2.39,4.76,4.76,0,0,0,1.75,6.52,4.78,4.78,0,0,0,6.52-1.75,4.73,4.73,0,0,0,.48-3.62,4.79,4.79,0,0,0-4.61-3.54Zm0,53.05a9.14,9.14,0,0,1-7.92-4.56,9.13,9.13,0,0,1,3.34-12.47,9.13,9.13,0,1,1,4.58,17Zm0-13.9a4.79,4.79,0,0,0-4.61,3.54,4.78,4.78,0,0,0,7,5.37,4.77,4.77,0,0,0-2.39-8.91Zm33.9,33.47a9.13,9.13,0,1,1,9.13-9.13A9.13,9.13,0,0,1,410.2,495.75Zm0-13.9a4.78,4.78,0,1,0,4.78,4.77A4.78,4.78,0,0,0,410.2,481.85Zm33.89-5.67a9.12,9.12,0,1,1,2.38-.31A9.26,9.26,0,0,1,444.09,476.18Zm0-13.9a4.77,4.77,0,1,0,4.61,3.54,4.79,4.79,0,0,0-4.61-3.54Zm0-25.25a9.11,9.11,0,1,1,4.55-1.22A9.12,9.12,0,0,1,444.12,437Zm0-13.9a4.77,4.77,0,1,0,4.62,6,4.73,4.73,0,0,0-.48-3.62A4.77,4.77,0,0,0,444.1,423.13Z"/><path class="cls-5" d="M410.2,457.35a9.87,9.87,0,1,1,9.88-9.87A9.87,9.87,0,0,1,410.2,457.35Z"/><rect class="cls-5" x="407.86" y="425.18" width="4.68" height="14.8"/><polygon class="cls-5" points="415.01 431.89 410.2 427.09 405.4 431.89 402.09 428.58 410.2 420.46 418.32 428.58 415.01 431.89"/><rect class="cls-5" x="394.96" y="432.63" width="4.68" height="14.8" transform="translate(-182.43 564.09) rotate(-60)"/><polygon class="cls-5" points="389.78 445.06 386.81 433.97 397.89 431 399.11 435.52 392.55 437.28 394.3 443.84 389.78 445.06"/><rect class="cls-5" x="389.91" y="452.58" width="14.8" height="4.68" transform="matrix(0.87, -0.5, 0.5, 0.87, -174.24, 259.61)"/><polygon class="cls-5" points="397.89 463.96 386.81 460.99 389.78 449.9 394.3 451.11 392.55 457.67 399.11 459.43 397.89 463.96"/><rect class="cls-5" x="407.86" y="454.97" width="4.68" height="14.8"/><polygon class="cls-5" points="410.2 474.49 402.09 466.38 405.4 463.07 410.2 467.87 415.01 463.07 418.32 466.38 410.2 474.49"/><rect class="cls-5" x="420.76" y="447.53" width="4.68" height="14.8" transform="translate(-182.43 593.88) rotate(-60)"/><polygon class="cls-5" points="422.51 463.96 421.3 459.43 427.86 457.67 426.11 451.11 430.63 449.9 433.6 460.99 422.51 463.96"/><rect class="cls-5" x="415.7" y="437.69" width="14.8" height="4.68" transform="translate(-163.33 270.49) rotate(-30)"/><polygon class="cls-5" points="430.63 445.06 426.11 443.84 427.86 437.28 421.3 435.53 422.51 431 433.6 433.97 430.63 445.06"/></svg>