<svg id="Layer_1" data-name="Layer 1" xmlns="http://www.w3.org/2000/svg" xmlns:xlink="http://www.w3.org/1999/xlink" viewBox="0 0 76 90"><defs><style>.cls-1{fill:url(#linear-gradient);}.cls-2{fill:url(#linear-gradient-2);}.cls-3{fill:url(#linear-gradient-3);}.cls-4{fill:url(#linear-gradient-4);}.cls-5{fill:url(#linear-gradient-5);}.cls-6{fill:url(#linear-gradient-6);}</style><linearGradient id="linear-gradient" x1="32.17" y1="40.22" x2="52.97" y2="40.22" gradientUnits="userSpaceOnUse"><stop offset="0" stop-color="#6f5ec2"/><stop offset="1" stop-color="#7d37a8"/></linearGradient><linearGradient id="linear-gradient-2" x1="32.17" y1="46.7" x2="52.97" y2="46.7" xlink:href="#linear-gradient"/><linearGradient id="linear-gradient-3" x1="32.17" y1="53.17" x2="52.97" y2="53.17" xlink:href="#linear-gradient"/><linearGradient id="linear-gradient-4" x1="32.17" y1="59.65" x2="52.97" y2="59.65" xlink:href="#linear-gradient"/><linearGradient id="linear-gradient-5" x1="20.83" y1="46.7" x2="66.87" y2="46.7" xlink:href="#linear-gradient"/><linearGradient id="linear-gradient-6" x1="3.51" y1="46.7" x2="33.02" y2="46.7" xlink:href="#linear-gradient"/></defs><title>iconos</title><rect class="cls-1" x="32.17" y="39.01" width="20.8" height="2.43"/><rect class="cls-2" x="32.17" y="45.48" width="20.8" height="2.43"/><rect class="cls-3" x="32.17" y="51.96" width="20.8" height="2.43"/><rect class="cls-4" x="32.17" y="58.43" width="20.8" height="2.43"/><path class="cls-5" d="M52.34,15H25.22a17.46,17.46,0,0,1,5.41,3.69l.34.36h19.3v13H62.82V74.32H24.88l-4.05,4h46V30Zm.36,14.61V21.22l8.15,8.42Z"/><path class="cls-6" d="M23.09,72.23V45A14.77,14.77,0,1,0,13,44.88l.21,1.27L10,49.44l3.86,3.86L10,57.17l4,4-3.67,3.67,3.29,3.29L11.5,70.3l6.76,6.76ZM13.94,24a5.68,5.68,0,1,1,0,8A5.69,5.69,0,0,1,13.94,24Z"/></svg>