<svg id="Layer_1" data-name="Layer 1" xmlns="http://www.w3.org/2000/svg" xmlns:xlink="http://www.w3.org/1999/xlink" viewBox="0 0 140 120"><defs><style>.cls-1{font-size:20px;fill:#525252;font-family:MyriadPro-BoldCond, Myriad Pro;font-weight:700;}.cls-2{letter-spacing:-0.03em;}.cls-3{letter-spacing:-0.05em;}.cls-4{fill-rule:evenodd;fill:url(#linear-gradient);}.cls-5{fill:url(#linear-gradient-2);}</style><linearGradient id="linear-gradient" x1="40.75" y1="34.39" x2="97.34" y2="34.39" gradientUnits="userSpaceOnUse"><stop offset="0" stop-color="#6f5ec2"/><stop offset="1" stop-color="#7d37a8"/></linearGradient><linearGradient id="linear-gradient-2" x1="55.77" y1="65.01" x2="82.32" y2="65.01" xlink:href="#linear-gradient"/></defs><title>iconos02</title><text class="cls-1" transform="translate(27.02 103.66)">REAL ES<tspan class="cls-2" x="52.98" y="0">T</tspan><tspan class="cls-3" x="60.16" y="0">A</tspan><tspan x="68.32" y="0">TE</tspan></text><path class="cls-4" d="M93.44,50.3c-5-3.54-12.64-1.66-17.41-8,0,0-1.78-2,2.22-6.88s4.32-12.64,3.32-18.63-6.65-10-12.53-10-11.53,4-12.53,10-.66,13.75,3.33,18.63,2.22,6.88,2.22,6.88c-4.77,6.32-12.42,4.44-17.41,8S40.88,62,40.88,62H53.54V49.51h31V62H97.21S98.43,53.85,93.44,50.3Z"/><path class="cls-5" d="M66.26,69.71A1.73,1.73,0,1,1,64.53,68,1.74,1.74,0,0,1,66.26,69.71Zm16.06-18V78.29H55.77V51.73Zm-3.43,3.43H76l-8,8a6,6,0,0,0-2.69-.62,6.15,6.15,0,1,0,6.15,6.15A6.06,6.06,0,0,0,71,66.19l.31-.44H73.2V63.47h2.27V61.08h2.17V59.15h1.25Z"/></svg>