<svg id="Layer_1" data-name="Layer 1" xmlns="http://www.w3.org/2000/svg" viewBox="0 0 260.88 241.25"><defs><style>.cls-1{fill:#ff6518;}.cls-2{fill:none;stroke:#18454c;stroke-linecap:round;stroke-linejoin:round;stroke-width:6.28px;}.cls-3{fill:#66b7c4;}.cls-4{fill:#a6f4f4;}.cls-5{fill:#2b7f93;}.cls-6{fill:#fff;}.cls-7{fill:#18454c;}</style></defs><title>iconos</title><path class="cls-1" d="M20.3,55.59c7.23-14,16.59-26.54,28.59-36.45C66.81,4.34,91.77-3.48,114.59,1.49c28.45,6.2,32.23,31.72,40.2,56.59,14,43.71,53.21,26.87,83.49,47.28,24,16.19,29,62,14.34,91.43-20.21,40.44-77.6,60.09-108.11,29.57-16-16-23.8-34.4-46.79-31.72-20.6,2.4-39,19.76-60.44,12.67-20-6.6-31.65-30.35-35.43-50.11-3.65-19.13-1.48-39,2.88-57.95A185.64,185.64,0,0,1,20.3,55.59Z"/><path class="cls-2" d="M218.32,67.18a105.38,105.38,0,1,1-38.16-37.85"/><polygon class="cls-3" points="153.63 109.67 176.3 123.13 176.3 148.8 153.54 135.3 153.63 109.67"/><polygon class="cls-4" points="198.07 110.2 176.3 123.13 153.63 109.67 175.41 96.75 198.07 110.2"/><polygon class="cls-5" points="176.3 148.8 197.83 135.56 198.07 110.2 176.43 122.98 176.3 148.8"/><polygon class="cls-3" points="62.89 109.67 85.55 123.13 85.55 148.8 62.8 135.3 62.89 109.67"/><polygon class="cls-4" points="107.33 110.2 85.55 123.13 62.89 109.67 84.67 96.75 107.33 110.2"/><polygon class="cls-5" points="85.55 148.8 107.08 135.56 107.33 110.2 85.69 122.98 85.55 148.8"/><polygon class="cls-3" points="108.14 144.52 130.81 157.97 130.81 183.65 108.06 170.14 108.14 144.52"/><polygon class="cls-4" points="152.58 145.04 130.81 157.97 108.14 144.52 129.92 131.59 152.58 145.04"/><polygon class="cls-5" points="130.81 183.65 152.34 170.41 152.58 145.04 130.94 157.83 130.81 183.65"/><polygon class="cls-3" points="108.14 74.83 130.81 88.28 130.81 113.96 108.06 100.45 108.14 74.83"/><polygon class="cls-4" points="152.58 75.36 130.81 88.28 108.14 74.83 129.92 61.9 152.58 75.36"/><polygon class="cls-5" points="130.81 113.96 152.34 100.72 152.58 75.36 130.94 88.14 130.81 113.96"/><path class="cls-6" d="M94.49,131.48a2.67,2.67,0,0,1-2.63-2.69,2.62,2.62,0,0,1,2.62-2.66,2.68,2.68,0,0,1,0,5.35Z"/><ellipse class="cls-6" cx="118.46" cy="96.31" rx="2.63" ry="2.68" transform="translate(-14.65 21.55) rotate(-9.79)"/><path class="cls-6" d="M143.84,96.93a2.67,2.67,0,0,1-2.63-2.69,2.62,2.62,0,0,1,2.62-2.66,2.68,2.68,0,0,1,0,5.35Z"/><path class="cls-6" d="M166.67,132.35a2.69,2.69,0,0,1-2.64-2.68,2.63,2.63,0,0,1,2.62-2.67,2.67,2.67,0,0,1,2.64,2.68A2.64,2.64,0,0,1,166.67,132.35Z"/><path class="cls-7" d="M200.28,109.86a2,2,0,0,0,0-.24,2.67,2.67,0,0,0-.14-.36,2.23,2.23,0,0,0-.2-.33,1.78,1.78,0,0,0-.23-.31l-.14-.11a2.42,2.42,0,0,0-.31-.25L176.56,94.81a2.26,2.26,0,0,0-2.3,0L162,102.11l-7.35-4,.22-22.77h0v0a2.15,2.15,0,0,0-.05-.34,1.6,1.6,0,0,0,0-.23,2.24,2.24,0,0,0-.14-.36,3.72,3.72,0,0,0-.19-.34c-.08-.1-.15-.21-.24-.31l-.14-.11a3.76,3.76,0,0,0-.31-.25L131.07,60a2.26,2.26,0,0,0-2.3,0L107,72.89a2.43,2.43,0,0,0-.25.2l-.2.15c-.07.08-.13.17-.19.25s-.12.14-.16.22a2.21,2.21,0,0,0-.12.27,2.77,2.77,0,0,0-.1.26,2.23,2.23,0,0,0,0,.36,1.92,1.92,0,0,0,0,.22l-.09,25.63a2.29,2.29,0,0,0,.32,1.15l-4.35,2.68-16-9.47a2.28,2.28,0,0,0-2.31,0L61.74,107.74a1.64,1.64,0,0,0-.26.2c-.06,0-.13.09-.19.15a1.64,1.64,0,0,0-.19.25,1.06,1.06,0,0,0-.16.21,2.36,2.36,0,0,0-.12.28,2,2,0,0,0-.11.26c0,.11,0,.24-.05.36s0,.14,0,.22l-.08,25.62a2.24,2.24,0,0,0,1.1,2l22.75,13.5h0a0,0,0,0,0,0,0,1.89,1.89,0,0,0,.33.13L85,151a2.18,2.18,0,0,0,1.17,0l.17-.07a1.84,1.84,0,0,0,.36-.15l0,0,0,0,19.6-12.05,3.37,2.3L107,142.58a2.43,2.43,0,0,0-.25.2,1.49,1.49,0,0,0-.2.15c-.07.08-.13.17-.19.25s-.12.14-.16.21-.08.19-.12.28a2.77,2.77,0,0,0-.1.26,2.23,2.23,0,0,0,0,.36,1.66,1.66,0,0,0,0,.22l-.09,25.62a2.28,2.28,0,0,0,1.1,2l22.76,13.51h0a2,2,0,0,0,.34.14l.19.08a2.25,2.25,0,0,0,.58.07,2.33,2.33,0,0,0,.59-.08l.16-.06a3.88,3.88,0,0,0,.36-.15l0,0h0l21.53-13.25a2.22,2.22,0,0,0,1.07-1.89l.25-25.36v0h0a2.15,2.15,0,0,0-.05-.34,2,2,0,0,0,0-.24,2.55,2.55,0,0,0-.14-.35,3.72,3.72,0,0,0-.19-.34,3.65,3.65,0,0,0-.24-.31l-.14-.11a2.42,2.42,0,0,0-.31-.25l-2.9-1.72,4.14-2.61,20.17,12h0l0,0a2,2,0,0,0,.34.13l.19.08a2.25,2.25,0,0,0,.58.08,2.39,2.39,0,0,0,.59-.08l.16-.07a1.61,1.61,0,0,0,.36-.15l0,0,0,0L199,137.48a2.22,2.22,0,0,0,1.07-1.9l.25-25.36h0A1.86,1.86,0,0,0,200.28,109.86ZM175.41,99.37l18.24,10.82-17.4,10.28-18.2-10.8Zm-27.83-5s0-.06,0-.09a3.81,3.81,0,0,0-3.76-3.81h0a3.71,3.71,0,0,0-2.63,1.09,3.82,3.82,0,0,0,2.65,6.51h0a3.69,3.69,0,0,0,2.16-.7l4,2.15-16.93,10.41.11-20.42,17.1-10.15-.16,16.39Zm-2.69,1a1.46,1.46,0,0,1-1,.43h0a1.56,1.56,0,0,1-1.07-2.66,1.47,1.47,0,0,1,1-.44h0a1.55,1.55,0,0,1,1.51,1.57A1.49,1.49,0,0,1,144.89,95.37Zm-15-30.85,18.24,10.83-17.4,10.28-18.2-10.8ZM110.38,78.78l18.17,10.79V110l-15.07-9,2.77-1.7a3.72,3.72,0,0,0,2.22.76h0A3.73,3.73,0,0,0,121.11,99a3.83,3.83,0,0,0-2.65-6.52h0a3.72,3.72,0,0,0-2.62,1.09,3.79,3.79,0,0,0-1.11,2.71v0L110.31,99ZM117,96.29a1.54,1.54,0,0,1,.45-1.1,1.46,1.46,0,0,1,1-.43h0A1.54,1.54,0,0,1,120,96.32a1.46,1.46,0,0,1-.45,1.1,1.28,1.28,0,0,1-1,.43A1.55,1.55,0,0,1,117,96.29ZM84.67,99.37l18.24,10.82L85.5,120.47l-18.19-10.8ZM65.13,113.63,83.3,124.41v20.43L65.06,134Zm22.7,31.13.1-20.42L105,114.18l-.19,19.38L98.22,129c0-.07,0-.14,0-.21A3.81,3.81,0,0,0,94.48,125h0a3.71,3.71,0,0,0-2.63,1.09,3.83,3.83,0,0,0,2.65,6.52h0a3.68,3.68,0,0,0,2.06-.63l5.7,3.9Zm6.67-14.41h0a1.56,1.56,0,0,1-1.07-2.66,1.46,1.46,0,0,1,1-.43h0a1.56,1.56,0,0,1,1.07,2.66A1.46,1.46,0,0,1,94.5,130.35Zm36.26,25-18.2-10.8,17.36-10.31L148.16,145Zm-20.38-6.85,18.17,10.79v20.43l-18.24-10.83Zm22.7,31.13.11-20.42L150.29,149l-.19,20.11Zm-2-49.95a2.26,2.26,0,0,0-2.3,0l-15.86,9.42-3.79-2.59a2.13,2.13,0,0,0,.22-.9l.25-25.36h0a1.86,1.86,0,0,0,0-.34,2,2,0,0,0,0-.24,1.84,1.84,0,0,0-.15-.36,1.57,1.57,0,0,0-.19-.33,1.78,1.78,0,0,0-.23-.31l-.14-.11a2,2,0,0,0-.32-.25l-3.42-2,4.08-2.51,20.52,12.18h0s0,0,0,0a2,2,0,0,0,.34.13l.19.08a2.25,2.25,0,0,0,.58.07,2,2,0,0,0,.59-.08l.16-.06a2.28,2.28,0,0,0,.36-.15l0,0h0l21.53-13.24a2.27,2.27,0,0,0,.78-.82l4.28,2.3-6.1,3.62a1.57,1.57,0,0,0-.25.2,1,1,0,0,0-.19.15,1.22,1.22,0,0,0-.2.25c-.05.07-.11.13-.16.21a1.36,1.36,0,0,0-.11.28,1.19,1.19,0,0,0-.11.26,2.08,2.08,0,0,0-.05.36,1.46,1.46,0,0,0,0,.22l-.09,25.62a2.26,2.26,0,0,0,.55,1.46l-4.27,2.69Zm33.43,3.11a3.71,3.71,0,0,0,2.16.72h0a3.69,3.69,0,0,0,2.63-1.1,3.82,3.82,0,0,0-2.65-6.51h0A3.68,3.68,0,0,0,164,127a3.8,3.8,0,0,0-1.12,2.71s0,.06,0,.09L156,134.13l-.19-.11.08-20.39L174,124.41v20.43l-14.78-8.77Zm.66-3.1a1.54,1.54,0,0,1,.45-1.1,1.45,1.45,0,0,1,1-.43h0a1.56,1.56,0,0,1,1.06,2.66,1.44,1.44,0,0,1-1,.43h0A1.54,1.54,0,0,1,165.16,129.66Zm13.41,15.1.11-20.42,17.1-10.16-.19,20.11Z"/></svg>