<svg id="Layer_1" data-name="Layer 1" xmlns="http://www.w3.org/2000/svg" xmlns:xlink="http://www.w3.org/1999/xlink" viewBox="0 0 140 120"><defs><style>.cls-1{font-size:20px;fill:#525252;font-family:MyriadPro-BoldCond, Myriad Pro;font-weight:700;}.cls-2{letter-spacing:-0.01em;}.cls-3{letter-spacing:0em;}.cls-4{letter-spacing:-0.05em;}.cls-5{letter-spacing:-0.01em;}.cls-6{fill:url(#linear-gradient);}.cls-7{fill:url(#linear-gradient-2);}.cls-8{fill:url(#linear-gradient-3);}.cls-9{fill:url(#linear-gradient-4);}.cls-10{fill:url(#linear-gradient-5);}.cls-11{fill:url(#linear-gradient-6);}</style><linearGradient id="linear-gradient" x1="64.37" y1="41.52" x2="85.17" y2="41.52" gradientUnits="userSpaceOnUse"><stop offset="0" stop-color="#6f5ec2"/><stop offset="1" stop-color="#7d37a8"/></linearGradient><linearGradient id="linear-gradient-2" x1="64.37" y1="48" x2="85.17" y2="48" xlink:href="#linear-gradient"/><linearGradient id="linear-gradient-3" x1="64.37" y1="54.47" x2="85.17" y2="54.47" xlink:href="#linear-gradient"/><linearGradient id="linear-gradient-4" x1="64.37" y1="60.94" x2="85.17" y2="60.94" xlink:href="#linear-gradient"/><linearGradient id="linear-gradient-5" x1="53.04" y1="48" x2="99.07" y2="48" xlink:href="#linear-gradient"/><linearGradient id="linear-gradient-6" x1="35.71" y1="48" x2="65.22" y2="48" xlink:href="#linear-gradient"/></defs><title>iconos02</title><text class="cls-1" transform="translate(28.33 109.1)"><tspan class="cls-2">C</tspan><tspan class="cls-3" x="7.66" y="0">ONTR</tspan><tspan class="cls-4" x="44.86" y="0">A</tspan><tspan class="cls-5" x="53.02" y="0">T</tspan><tspan x="60.62" y="0">OS</tspan></text><rect class="cls-6" x="64.37" y="40.31" width="20.8" height="2.43"/><rect class="cls-7" x="64.37" y="46.78" width="20.8" height="2.43"/><rect class="cls-8" x="64.37" y="53.26" width="20.8" height="2.43"/><rect class="cls-9" x="64.37" y="59.73" width="20.8" height="2.43"/><path class="cls-10" d="M84.54,16.33H57.42A17.46,17.46,0,0,1,62.83,20c.12.11.23.24.35.36H82.47v13H95V75.62H57.08l-4,4h46V31.33Zm.36,14.61V22.52l8.16,8.42Z"/><path class="cls-11" d="M55.29,73.53V46.33a14.77,14.77,0,1,0-10.06-.15l.21,1.27-3.28,3.29L46,54.6l-3.86,3.86,4.05,4.06-3.67,3.67,3.29,3.29L43.7,71.6l6.76,6.76ZM46.15,25.29a5.67,5.67,0,1,1,0,8A5.67,5.67,0,0,1,46.15,25.29Z"/></svg>