<svg id="Layer_1" data-name="Layer 1" xmlns="http://www.w3.org/2000/svg" xmlns:xlink="http://www.w3.org/1999/xlink" viewBox="0 0 140 120"><defs><style>.cls-1{font-size:20px;fill:#525252;font-family:MyriadPro-BoldCond, Myriad Pro;font-weight:700;}.cls-2{letter-spacing:-0.01em;}.cls-3{fill:url(#linear-gradient);}.cls-4{fill:url(#linear-gradient-2);}.cls-5{fill:url(#linear-gradient-3);}.cls-6{fill:url(#linear-gradient-4);}.cls-7{fill:url(#linear-gradient-5);}.cls-8{fill:url(#linear-gradient-6);}.cls-9{fill:url(#linear-gradient-7);}.cls-10{fill:url(#linear-gradient-8);}.cls-11{fill:url(#linear-gradient-9);}</style><linearGradient id="linear-gradient" x1="39.2" y1="30.6" x2="102.19" y2="30.6" gradientUnits="userSpaceOnUse"><stop offset="0" stop-color="#6f5ec2"/><stop offset="1" stop-color="#7d37a8"/></linearGradient><linearGradient id="linear-gradient-2" x1="39.36" y1="44.75" x2="102.03" y2="44.75" xlink:href="#linear-gradient"/><linearGradient id="linear-gradient-3" x1="39.36" y1="49.52" x2="102.03" y2="49.52" xlink:href="#linear-gradient"/><linearGradient id="linear-gradient-4" x1="39.36" y1="54.28" x2="102.03" y2="54.28" xlink:href="#linear-gradient"/><linearGradient id="linear-gradient-5" x1="39.36" y1="59.05" x2="102.03" y2="59.05" xlink:href="#linear-gradient"/><linearGradient id="linear-gradient-6" x1="39.36" y1="63.82" x2="102.03" y2="63.82" xlink:href="#linear-gradient"/><linearGradient id="linear-gradient-7" x1="68.48" y1="32.56" x2="76.35" y2="32.56" xlink:href="#linear-gradient"/><linearGradient id="linear-gradient-8" x1="47.58" y1="30.6" x2="93.8" y2="30.6" xlink:href="#linear-gradient"/><linearGradient id="linear-gradient-9" x1="68.48" y1="28.37" x2="75.69" y2="28.37" xlink:href="#linear-gradient"/></defs><title>iconos02</title><text class="cls-1" transform="translate(4.56 99.66)">BIENES<tspan class="cls-2" x="48.58" y="0"> </tspan><tspan x="51.54" y="0">Y SERVICIOS</tspan></text><path class="cls-3" d="M70.36,13.84C53.15,14,39.2,21.53,39.2,30.72S53.45,47.37,71,47.37s31.52-7.56,31.16-16.89S87.57,13.7,70.36,13.84ZM71,44.75c-14.78,0-26.82-6.29-26.84-14S55.89,16.56,70.41,16.46s26.56,6.2,26.84,14S85.75,44.74,71,44.75Z"/><path class="cls-4" d="M71,49.59H71l-1.45,0c-14-.34-25.69-5.44-29.22-12.29h-.93C41,45.67,54.55,52.21,71,52.21s29.52-6.52,31-14.93h-.88C97.67,44.38,85.59,49.59,71,49.59Z"/><path class="cls-5" d="M71,54.36H71l-1.45,0c-14-.34-25.69-5.44-29.22-12.29h-.93C41,50.44,54.55,57,71,57s29.52-6.53,31-14.93h-.88C97.67,49.15,85.59,54.36,71,54.36Z"/><path class="cls-6" d="M71,59.13H71l-1.45,0c-14-.35-25.69-5.45-29.22-12.29h-.93C41,55.21,54.55,61.75,71,61.75s29.52-6.53,31-14.93h-.88C97.67,53.92,85.59,59.13,71,59.13Z"/><path class="cls-7" d="M71,63.89H71c-.49,0-1,0-1.45,0-14-.34-25.69-5.44-29.22-12.28h-.93C41,60,54.55,66.52,71,66.52S100.53,60,102,51.59h-.88C97.67,58.69,85.59,63.89,71,63.89Z"/><path class="cls-8" d="M71,68.66H71l-1.45,0c-14-.34-25.69-5.44-29.22-12.29h-.93C41,64.74,54.55,71.29,71,71.29s29.52-6.53,31-14.94h-.88C97.67,63.45,85.59,68.66,71,68.66Z"/><path class="cls-9" d="M70.64,31.15H68.48v2.79c.62,0,1.37,0,2.46,0,2.87,0,5.41-.38,5.41-1.42S73.81,31.15,70.64,31.15Z"/><path class="cls-10" d="M93.8,30.52c-.23-6.83-10.71-12.31-23.35-12.22s-22.9,5.64-22.87,12.39S58.09,42.92,70.93,42.91,94,37.34,93.8,30.52ZM80.11,34.73a24.22,24.22,0,0,1-4.73.71v1.74h-3v-1.6c-.86,0-1.78,0-2.78.05v1.55h-3V35.61h-8.2V34.53h3.82V26.67H58.36V25.61h8.2V24h3v1.54h2.78V24h3v1.67a23.8,23.8,0,0,1,3.31.42c2,.37,3.38,1.05,3.38,1.94s-1.46,1.71-4.63,2.12v0c3.21.3,5.58,1.16,5.58,2.43C83,33.53,81.86,34.23,80.11,34.73Z"/><path class="cls-11" d="M75.69,28.33c0-.75-1.63-1.14-4.5-1.14-1.38,0-2.17,0-2.71,0v2.31h2.08C73.89,29.55,75.69,29.07,75.69,28.33Z"/></svg>